<svg width="300" height="250" viewBox="0 0 300 250" fill="none" xmlns="http://www.w3.org/2000/svg">
<g id="Frame">
<g id="controller_shape" filter="url(#filter0_d_6_106)">
<path d="M149.883 94H194.177C215.465 94 234.096 108.308 239.589 128.875L253.858 181.188L257.352 203.255C257.781 205.966 257.781 208.727 257.352 211.437L256.554 216.476C255.001 226.281 246.549 233.5 236.622 233.5C228.783 233.5 221.653 228.96 218.337 221.858L202.829 188.646C202.474 187.886 202.014 187.18 201.462 186.548C199.768 184.611 197.32 183.5 194.747 183.5H105.092C102.522 183.5 100.074 184.6 98.368 186.522C97.7924 187.171 97.3135 187.899 96.9464 188.684L81.7677 221.16C78.2487 228.689 70.6892 233.5 62.3784 233.5C52.72 233.5 44.2584 227.031 41.7251 217.711L40.8405 214.457C39.6354 210.023 39.6355 205.348 40.8408 200.914L46.0166 181.875L60.0498 130.25C65.6345 108.896 84.9266 94 106.999 94H149.883Z" fill="#677D9C"/>
<path d="M149.883 94H194.177C215.465 94 234.096 108.308 239.589 128.875L253.858 181.188L257.352 203.255C257.781 205.966 257.781 208.727 257.352 211.437L256.554 216.476C255.001 226.281 246.549 233.5 236.622 233.5C228.783 233.5 221.653 228.96 218.337 221.858L202.829 188.646C202.474 187.886 202.014 187.18 201.462 186.548C199.768 184.611 197.32 183.5 194.747 183.5H105.092C102.522 183.5 100.074 184.6 98.368 186.522C97.7924 187.171 97.3135 187.899 96.9464 188.684L81.7677 221.16C78.2487 228.689 70.6892 233.5 62.3784 233.5C52.72 233.5 44.2584 227.031 41.7251 217.711L40.8405 214.457C39.6354 210.023 39.6355 205.348 40.8408 200.914L46.0166 181.875L60.0498 130.25C65.6345 108.896 84.9266 94 106.999 94H149.883Z" stroke="#7F9AB5" stroke-width="2"/>
</g>
<path id="shoulder_R" d="M178 81.7647C178 77.4764 181.476 74 185.765 74L192.692 74L207.384 74L222.075 74L224.208 74C227.512 74 230.646 75.4649 232.765 77.9998L232.941 78.2101C236.413 82.364 236.288 88.4433 232.647 92.4503C230.593 94.711 227.68 96 224.625 96H224.443C222.882 96 221.338 95.675 219.909 95.0457L214.73 92.7647C209.885 90.6312 204.65 89.5294 199.357 89.5294H192.692H185.765C181.476 89.5294 178 86.053 178 81.7647Z" fill="#4A5361"/>
<path id="trigger_R" d="M192.492 60.6424C192.492 54.8796 193.419 49.1544 195.237 43.6858L197.678 36.3409C197.977 35.4417 198.393 34.5855 198.913 33.794C203.208 27.2695 212.777 27.2695 217.071 33.794C217.592 34.5855 218.007 35.4417 218.306 36.3409L220.748 43.6858C222.566 49.1544 223.492 54.8796 223.492 60.6424C223.492 66.3627 218.855 71 213.135 71H211.867H207.992H204.117H202.85C197.13 71 192.492 66.3627 192.492 60.6424Z" fill="#95A2B3"/>
<path id="shoulder_L" d="M122 81.7647C122 77.4764 118.524 74 114.235 74L107.308 74L92.6163 74L77.9245 74L75.7919 74C72.4879 74 69.354 75.4649 67.235 77.9998L67.0592 78.2101C63.5867 82.364 63.7122 88.4433 67.3532 92.4503C69.4074 94.711 72.3202 96 75.3748 96H75.5569C77.1182 96 78.6624 95.675 80.0913 95.0457L85.2704 92.7647C90.1147 90.6312 95.3499 89.5294 100.643 89.5294H107.308H114.235C118.524 89.5294 122 86.053 122 81.7647Z" fill="#4A5361"/>
<path id="trigger_L" d="M109.492 60.6424C109.492 54.8819 108.538 49.1612 106.669 43.7126L104.165 36.4154C103.839 35.4669 103.389 34.5661 102.825 33.7367C98.3481 27.147 88.6366 27.147 84.1596 33.7367C83.596 34.5661 83.1456 35.4669 82.8202 36.4154L80.3162 43.7126C78.4465 49.1612 77.4923 54.8819 77.4923 60.6424C77.4923 66.3627 82.1296 71 87.8499 71H89.4923H93.4923H97.4923H99.1347C104.855 71 109.492 66.3627 109.492 60.6424Z" fill="#95A2B3"/>
<rect id="btn_mute" x="144" y="171" width="10" height="5" rx="2.5" fill="#2F3C50"/>
<path id="btn_create" d="M102.391 115.805C102.834 117.506 104.571 118.526 106.272 118.083C107.973 117.641 108.993 115.903 108.55 114.203L106.77 107.359C106.328 105.659 104.59 104.639 102.889 105.081C101.189 105.523 100.169 107.261 100.611 108.962L102.391 115.805Z" fill="#E8EDF2"/>
<path id="btn_options" d="M190.002 114.205C189.561 115.906 190.582 117.643 192.283 118.084C193.984 118.526 195.721 117.505 196.162 115.804L197.938 108.959C198.38 107.258 197.359 105.521 195.658 105.08C193.957 104.639 192.22 105.66 191.778 107.361L190.002 114.205Z" fill="#E8EDF2"/>
<path id="touchpad" d="M116.5 132C117.588 135.565 120.878 138 124.605 138H174.436C178.126 138 181.368 135.55 182.375 132L188.701 106C189.352 103.747 187.661 101.5 185.316 101.5H184.362H115.676H113.261C110.93 101.5 109.294 103.797 110.055 106L116.5 132Z" fill="#2F3C50"/>
<path id="dpad" d="M83.4363 117.508C81.6751 117.802 80.3842 119.325 80.3842 121.111V123.305L80.3842 128.387C80.3842 128.949 79.9293 129.404 79.3681 129.404H72.0992C70.3161 129.404 68.795 130.694 68.5041 132.453C68.4854 132.567 68.4761 132.623 68.4671 132.68C68.1701 134.55 68.1701 136.456 68.4671 138.326C68.4761 138.383 68.4854 138.439 68.5041 138.553C68.795 140.312 70.3161 141.602 72.0992 141.602H79.3681C79.9292 141.602 80.3842 142.057 80.3842 142.619L80.4242 149.917C80.4339 151.69 81.717 153.198 83.4647 153.492C83.5146 153.5 83.5395 153.504 83.5643 153.508C85.5007 153.828 87.4763 153.829 89.413 153.512C89.4378 153.508 89.4694 153.502 89.5327 153.492C91.2896 153.198 92.577 151.678 92.577 149.897V142.619C92.577 142.057 93.0319 141.602 93.5931 141.602H100.884C102.669 141.602 104.193 140.313 104.488 138.553C104.5 138.483 104.506 138.449 104.511 138.414C104.827 136.486 104.827 134.52 104.511 132.592C104.506 132.557 104.5 132.523 104.488 132.453C104.193 130.693 102.669 129.404 100.884 129.404H93.5931C93.0319 129.404 92.577 128.949 92.577 128.387L92.577 121.103C92.577 119.322 91.2896 117.802 89.5327 117.508C89.449 117.494 89.4071 117.487 89.3654 117.481C87.4598 117.172 85.5169 117.171 83.6111 117.479C83.5695 117.486 83.5251 117.493 83.4363 117.508Z" fill="#2F3C50"/>
<path id="dpad_U" fill-rule="evenodd" clip-rule="evenodd" d="M81 127L81 123.091V121.192C81 119.583 82.1657 118.211 83.7535 117.951C85.5725 117.653 87.4347 117.652 89.2535 117.951C90.8374 118.211 92 119.58 92 121.185L92 127C92 127.576 91.7675 128.129 91.3551 128.531L87.8041 132L87.7459 132.045C87.0217 132.603 86.0072 132.585 85.3041 132L81.6528 128.523C81.2359 128.126 81 127.576 81 127Z" fill="#E8EDF2"/>
<path id="dpad_R" fill-rule="evenodd" clip-rule="evenodd" d="M95 130L98.9087 130L100.808 130C102.417 130 103.789 131.166 104.049 132.754C104.347 134.572 104.348 136.435 104.049 138.254C103.789 139.837 102.42 141 100.815 141L95 141C94.4235 141 93.8715 140.768 93.4687 140.355L90 136.804L89.9551 136.746C89.3968 136.022 89.4155 135.007 90 134.304L93.4769 130.653C93.8739 130.236 94.4244 130 95 130Z" fill="#E8EDF2"/>
<path id="dpad_L" fill-rule="evenodd" clip-rule="evenodd" d="M78 141L74.0913 141L72.1916 141C70.5827 141 69.2106 139.834 68.9507 138.246C68.653 136.428 68.6522 134.565 68.9507 132.746C69.2107 131.163 70.5796 130 72.1847 130L78 130C78.5765 130 79.1285 130.232 79.5313 130.645L83 134.196L83.0449 134.254C83.6032 134.978 83.5845 135.993 83 136.696L79.5231 140.347C79.1261 140.764 78.5756 141 78 141Z" fill="#E8EDF2"/>
<path id="dpad_D" fill-rule="evenodd" clip-rule="evenodd" d="M92 144L92 147.909L92 149.808C92 151.417 90.8343 152.789 89.2465 153.049C87.4275 153.347 85.5653 153.348 83.7465 153.049C82.1626 152.789 81 151.42 81 149.815L81 144C81 143.424 81.2325 142.871 81.6449 142.469L85.1959 139L85.2541 138.955C85.9783 138.397 86.9928 138.415 87.6959 139L91.3472 142.477C91.7641 142.874 92 143.424 92 144Z" fill="#E8EDF2"/>
<path id="btn_Y" d="M212 127C215.866 127 219 123.866 219 120C219 116.134 215.866 113 212 113C208.134 113 205 116.134 205 120C205 123.866 208.134 127 212 127Z" fill="#2ED573"/>
<path id="btn_A" d="M212 157C215.866 157 219 153.866 219 150C219 146.134 215.866 143 212 143C208.134 143 205 146.134 205 150C205 153.866 208.134 157 212 157Z" fill="#1E90FF"/>
<path id="btn_X" d="M197 142C200.866 142 204 138.866 204 135C204 131.134 200.866 128 197 128C193.134 128 190 131.134 190 135C190 138.866 193.134 142 197 142Z" fill="#FF6B81"/>
<path id="btn_B" d="M227 142C230.866 142 234 138.866 234 135C234 131.134 230.866 128 227 128C223.134 128 220 131.134 220 135C220 138.866 223.134 142 227 142Z" fill="#FF4757"/>
<path id="thumb_R" d="M181.492 178C189.777 178 196.492 171.284 196.492 163C196.492 154.716 189.777 148 181.492 148C173.208 148 166.492 154.716 166.492 163C166.492 171.284 173.208 178 181.492 178Z" fill="#2F3C50"/>
<path id="thumbStick_R" d="M181.492 173C187.015 173 191.492 168.522 191.492 163C191.492 157.478 187.015 153 181.492 153C175.97 153 171.492 157.478 171.492 163C171.492 168.522 175.97 173 181.492 173Z" fill="#E8EDF2"/>
<path id="thumb_L" d="M117 179C125.284 179 132 172.284 132 164C132 155.716 125.284 149 117 149C108.716 149 102 155.716 102 164C102 172.284 108.716 179 117 179Z" fill="#2F3C50"/>
<path id="thumbStick_L" d="M117 174C122.523 174 127 169.522 127 164C127 158.477 122.523 154 117 154C111.477 154 107 158.477 107 164C107 169.522 111.477 174 117 174Z" fill="#E8EDF2"/>
</g>
</svg>
