<svg width="300" height="250" viewBox="0 0 300 250" fill="none" xmlns="http://www.w3.org/2000/svg">
<g id="Frame">
<path id="controller_shape" d="M149.883 94H194.177C215.465 94 234.096 108.308 239.589 128.875L253.858 181.188L259.115 200.461C260.344 204.967 260.344 209.72 259.115 214.227L257.846 218.879C255.491 227.511 247.651 233.5 238.703 233.5C232.786 233.5 227.178 230.86 223.409 226.299L197.951 195.5C195.923 192.971 192.857 191.5 189.615 191.5H110.258C106.994 191.5 103.904 192.969 101.843 195.5L76.337 226.337C72.5846 230.874 67.004 233.5 61.1165 233.5C52.203 233.5 44.3939 227.53 42.0557 218.929L40.8405 214.458C39.6354 210.025 39.6354 205.35 40.8405 200.917L46.0166 181.875L60.0498 130.25C65.6345 108.896 84.9266 94 106.999 94H149.883Z" fill="#2C3E50" stroke="#34495E" stroke-width="2"/>
<path id="shoulder_R" d="M178 81.7647C178 77.4764 181.476 74 185.765 74L192.692 74L207.384 74L222.075 74L224.208 74C227.512 74 230.646 75.4649 232.765 77.9998L232.941 78.2101C236.413 82.364 236.288 88.4433 232.647 92.4503C230.593 94.711 227.68 96 224.625 96H224.443C222.882 96 221.338 95.675 219.909 95.0457L214.73 92.7647C209.885 90.6312 204.65 89.5294 199.357 89.5294H192.692H185.765C181.476 89.5294 178 86.053 178 81.7647Z" fill="#95A5A6"/>
<path id="trigger_R" d="M192.492 60.6424C192.492 54.8796 193.419 49.1544 195.237 43.6858L197.678 36.3409C197.977 35.4417 198.393 34.5855 198.913 33.794C203.208 27.2695 212.777 27.2695 217.071 33.794C217.592 34.5855 218.007 35.4417 218.306 36.3409L220.748 43.6858C222.566 49.1544 223.492 54.8796 223.492 60.6424C223.492 66.3627 218.855 71 213.135 71H211.867H207.992H204.117H202.85C197.13 71 192.492 66.3627 192.492 60.6424Z" fill="#BDC3C7"/>
<path id="shoulder_L" d="M122 81.7647C122 77.4764 118.524 74 114.235 74L107.308 74L92.6163 74L77.9245 74L75.7919 74C72.4879 74 69.354 75.4649 67.235 77.9998L67.0592 78.2101C63.5867 82.364 63.7122 88.4433 67.3532 92.4503C69.4074 94.711 72.3202 96 75.3748 96H75.5569C77.1182 96 78.6624 95.675 80.0913 95.0457L85.2704 92.7647C90.1147 90.6312 95.3499 89.5294 100.643 89.5294H107.308H114.235C118.524 89.5294 122 86.053 122 81.7647Z" fill="#95A5A6"/>
<path id="trigger_L" d="M109.492 60.6424C109.492 54.8819 108.538 49.1612 106.669 43.7126L104.165 36.4154C103.839 35.4669 103.389 34.5661 102.825 33.7367C98.3481 27.147 88.6366 27.147 84.1596 33.7367C83.596 34.5661 83.1456 35.4669 82.8202 36.4154L80.3162 43.7126C78.4465 49.1612 77.4923 54.8819 77.4923 60.6424C77.4923 66.3627 82.1296 71 87.8499 71H89.4923H93.4923H97.4923H99.1347C104.855 71 109.492 66.3627 109.492 60.6424Z" fill="#BDC3C7"/>
<rect id="btn_share" x="145" y="136" width="10" height="5" rx="2.5" fill="#1A252F"/>
<path id="btn_back" d="M133.5 131C135.985 131 138 128.985 138 126.5C138 124.015 135.985 122 133.5 122C131.015 122 129 124.015 129 126.5C129 128.985 131.015 131 133.5 131Z" fill="#1A252F"/>
<path id="btn_home" d="M150 114C154.418 114 158 110.418 158 106C158 101.582 154.418 98 150 98C145.582 98 142 101.582 142 106C142 110.418 145.582 114 150 114Z" fill="#1A252F"/>
<path id="btn_start" d="M165.5 131C167.985 131 170 128.985 170 126.5C170 124.015 167.985 122 165.5 122C163.015 122 161 124.015 161 126.5C161 128.985 163.015 131 165.5 131Z" fill="#1A252F"/>
<path id="dpad2" d="M121.492 181C131.433 181 139.492 172.941 139.492 163C139.492 153.059 131.433 145 121.492 145C111.551 145 103.492 153.059 103.492 163C103.492 172.941 111.551 181 121.492 181Z" fill="#1A252F"/>
<path id="dpad" d="M118.496 145.297C116.763 145.586 115.492 147.085 115.492 148.843V151L115.492 156C115.492 156.552 115.045 157 114.492 157H107.337C105.583 157 104.086 158.269 103.8 160C103.79 160.063 103.785 160.094 103.78 160.125C103.472 162.029 103.472 163.971 103.78 165.875C103.785 165.906 103.79 165.937 103.8 166C104.086 167.731 105.583 169 107.337 169H114.492C115.045 169 115.492 169.448 115.492 170L115.532 177.179C115.541 178.923 116.804 180.408 118.524 180.697C118.528 180.697 118.529 180.698 118.531 180.698C120.497 181.028 122.504 181.029 124.47 180.701C124.471 180.701 124.48 180.699 124.496 180.697C126.225 180.408 127.492 178.912 127.492 177.159V170C127.492 169.448 127.94 169 128.492 169H135.669C137.425 169 138.924 167.732 139.215 166C139.218 165.981 139.22 165.972 139.221 165.963C139.549 164.001 139.549 161.999 139.221 160.037C139.22 160.028 139.218 160.019 139.215 160C138.924 158.268 137.425 157 135.669 157H128.492C127.94 157 127.492 156.552 127.492 156L127.492 148.835C127.492 147.082 126.225 145.586 124.496 145.297C124.459 145.291 124.441 145.288 124.422 145.285C122.487 144.966 120.513 144.966 118.577 145.284C118.559 145.287 118.538 145.29 118.496 145.297Z" fill="#9AA1A5"/>
<path id="dpad_L" fill-rule="evenodd" clip-rule="evenodd" d="M114.088 157.542H107.678C106.071 157.542 104.702 158.706 104.444 160.292C104.148 162.113 104.148 163.97 104.444 165.792C104.702 167.377 106.071 168.542 107.678 168.542H114.088C114.587 168.542 114.993 168.139 114.996 167.64L114.997 167.625L114.99 158.458V158.444C114.99 157.945 114.586 157.542 114.088 157.542Z" fill="#BDC3C7"/>
<path id="dpad_D" fill-rule="evenodd" clip-rule="evenodd" d="M116.036 176.882C116.045 178.479 117.203 179.838 118.779 180.098C120.586 180.397 122.447 180.395 124.254 180.098C125.837 179.838 127 178.469 127 176.864V170.451C127 169.953 126.588 169.549 126.09 169.549H116.902C116.404 169.549 116 169.953 116 170.451L116.036 176.882Z" fill="#BDC3C7"/>
<path id="dpad_R" d="M138.547 160.25C138.285 158.664 136.914 157.5 135.306 157.5H128.9C128.403 157.5 128 157.903 128 158.4L128 167.6C128 168.097 128.403 168.5 128.9 168.5H135.306C136.914 168.5 138.285 167.336 138.547 165.75C138.847 163.929 138.847 162.071 138.547 160.25Z" fill="#BDC3C7"/>
<path id="dpad_U" fill-rule="evenodd" clip-rule="evenodd" d="M116 155.648L116 151.141V149.241C116 147.632 117.166 146.26 118.754 146C120.572 145.702 122.435 145.702 124.254 146C125.837 146.26 127 147.629 127 149.234L127 155.648C127 156.146 126.588 156.549 126.09 156.549H116.924H116.901C116.404 156.549 116 156.146 116 155.648Z" fill="#BDC3C7"/>
<path id="btn_Y" d="M209.553 120C213.971 120 217.553 116.418 217.553 112C217.553 107.582 213.971 104 209.553 104C205.135 104 201.553 107.582 201.553 112C201.553 116.418 205.135 120 209.553 120Z" fill="#F1C40F"/>
<path id="btn_A" d="M209.492 150C213.91 150 217.492 146.418 217.492 142C217.492 137.582 213.91 134 209.492 134C205.074 134 201.492 137.582 201.492 142C201.492 146.418 205.074 150 209.492 150Z" fill="#2ECC71"/>
<path id="btn_X" d="M194.492 135C198.91 135 202.492 131.418 202.492 127C202.492 122.582 198.91 119 194.492 119C190.074 119 186.492 122.582 186.492 127C186.492 131.418 190.074 135 194.492 135Z" fill="#3498DB"/>
<path id="btn_B" d="M224.553 135C228.971 135 232.553 131.418 232.553 127C232.553 122.582 228.971 119 224.553 119C220.135 119 216.553 122.582 216.553 127C216.553 131.418 220.135 135 224.553 135Z" fill="#E74C3C"/>
<path id="thumb_R" d="M181.492 178C189.777 178 196.492 171.284 196.492 163C196.492 154.716 189.777 148 181.492 148C173.208 148 166.492 154.716 166.492 163C166.492 171.284 173.208 178 181.492 178Z" fill="#1A252F"/>
<path id="thumbStick_R" d="M181.492 173C187.015 173 191.492 168.522 191.492 163C191.492 157.477 187.015 153 181.492 153C175.97 153 171.492 157.477 171.492 163C171.492 168.522 175.97 173 181.492 173Z" fill="#95A5A6"/>
<path id="thumb_L" d="M94 142C102.284 142 109 135.284 109 127C109 118.716 102.284 112 94 112C85.7157 112 79 118.716 79 127C79 135.284 85.7157 142 94 142Z" fill="#1A252F"/>
<path id="thumbStick_L" d="M94 137C99.5228 137 104 132.522 104 127C104 121.477 99.5228 117 94 117C88.4772 117 84 121.477 84 127C84 132.522 88.4772 137 94 137Z" fill="#95A5A6"/>
</g>
</svg>
